<?xml version="1.0" encoding="utf-8"?>
<!-- Generator: Adobe Illustrator 24.1.2, SVG Export Plug-In . SVG Version: 6.00 Build 0)  -->
<svg version="1.1" id="Layer_1" xmlns="http://www.w3.org/2000/svg" xmlns:xlink="http://www.w3.org/1999/xlink" x="0px" y="0px"
	 viewBox="0 0 421.3 421.3" style="enable-background:new 0 0 421.3 421.3;" xml:space="preserve">
<style type="text/css">
	.st0{fill-rule:evenodd;clip-rule:evenodd;}
</style>
<g>
	<path class="st0" d="M205.8,205.4c0-0.3,0.3-0.6,0.6-0.6h9.3c0.3,0,0.6,0.3,0.6,0.6v10.5c0,0.3-0.3,0.6-0.6,0.6h-9.3
		c-0.3,0-0.6-0.3-0.6-0.6v-2.3c0-0.3-0.3-0.6-0.6-0.6c-0.3,0-0.6,0.3-0.6,0.6v2.3c0,1,0.8,1.8,1.8,1.8h9.3c1,0,1.8-0.8,1.8-1.8
		v-10.5c0-1-0.8-1.8-1.8-1.8h-9.3c-1,0-1.8,0.8-1.8,1.8v2.3c0,0.3,0.3,0.6,0.6,0.6c0.3,0,0.6-0.3,0.6-0.6V205.4L205.8,205.4z"/>
	<path class="st0" d="M212.6,211.1c0.2-0.2,0.2-0.6,0-0.8c0,0,0,0,0,0l-3.5-3.5c-0.2-0.2-0.6-0.2-0.8,0c-0.2,0.2-0.2,0.6,0,0.8
		l2.5,2.5h-8.9c-0.3,0-0.6,0.3-0.6,0.6c0,0.3,0.3,0.6,0.6,0.6h8.9l-2.5,2.5c-0.2,0.2-0.2,0.6,0,0.8c0.2,0.2,0.6,0.2,0.8,0
		L212.6,211.1z"/>
</g>
<path class="st0" d="M210.7,196.4c-7.8,0-14.2,6.4-14.2,14.2c0,7.8,6.4,14.2,14.2,14.2c7.8,0,14.2-6.4,14.2-14.2
	C224.9,202.8,218.5,196.4,210.7,196.4z M210.7,223.6c-7.2,0-13-5.8-13-13s5.8-13,13-13c7.2,0,13,5.8,13,13S217.8,223.6,210.7,223.6z
	"/>
</svg>
